<svg xmlns="http://www.w3.org/2000/svg" viewBox="0 0 1074.5 943.02"><defs><style>.cls-1{fill:#4d4d4d;}</style></defs><title>holder</title><g id="Livello_2" data-name="Livello 2"><g id="Livello_2-2" data-name="Livello 2"><path class="cls-1" d="M853.05,333.07c-7.35-7.18-22.41-5.83-22.41-5.83L802.92,303.5,786.58,301,727.65,347,369.47,306.26l-3.12-47.42-13.76-1.2-22.34,16C319,267.27,312,275.52,312,275.52c-20.5,13.16-19.16,23.94-19.16,23.94L1.07,743.08,81.5,831.23l457.3,111.29L811.35,455.68l3.05-15.61,16.63-.14c17.24-7.17,37.87-18.74,41.24-53.21S860.4,340.25,853.05,333.07Z"/><path d="M538.59,943,80.78,831.6l-.1-.11L0,743.07l.18-.39a.55.55,0,0,1,.61-.26h0l451.6,104.31L745.12,351.49l.06-.05,57.29-48.67,22.18,19.67,0,.25L813.39,452.17l-.05.09ZM81.31,830.7,538.09,941.87l274.32-490,11.2-129-21.16-18.76L745.9,352.14l-293,495.73-.36-.08L1.94,743.72Z"/><polygon points="730.05 347.52 729.84 347.5 308.55 299.84 365.61 258.35 366.19 259.16 311.22 299.14 729.74 346.48 785.98 300.44 802.54 302.93 802.39 303.92 786.27 301.5 730.05 347.52"/><path d="M291.92,299.42a18.55,18.55,0,0,1,1.16-7.35c8.47-12.92,25.51-21.28,25.68-21.36l.14-.07,11.57,1.65-.14,1-11.26-1.61c-1.62.81-17.19,8.84-25.07,20.81a17.82,17.82,0,0,0-1.08,6.87Z"/><path d="M830.63,440.36h-.07l-36-1.5-.13-.1c-.29-.23-28.56-23.32-23.92-59.81,2.12-16.68,7.17-31,14.6-41.37,6.25-8.72,13.91-14.38,21.57-15.93l.08,0L844.22,327c.34.15,34.29,15.82,28.09,59.74C869.08,409.63,858,423,849.19,430.16a54.7,54.7,0,0,1-18.48,10.18Zm-35.7-2.49,35.58,1.49c1.74-.5,34.84-10.5,40.8-52.78s-25.84-57.91-27.45-58.66l-37.08-5.28c-14.39,3-30.86,21.55-35.29,56.43C767.1,413.75,792.91,436.16,794.94,437.86Z"/><rect x="494.99" y="830.85" width="1" height="128.05" transform="translate(-471.61 561.66) rotate(-42.02)"/><polygon points="303.75 634.5 276.41 564.3 362.63 431.28 363.47 431.83 277.53 564.41 304.31 633.18 406.86 589.69 493.51 451.12 494.36 451.65 407.54 590.49 303.75 634.5"/><path d="M398.5,575.6l-98-19.24L372,442.94l.32,0,98.45,14.81Zm-96.33-19.94L398,574.49l71.1-115.92L372.48,444Z"/><path d="M.91,743.14l-.83-.55L292,299l60-42,14.37,1.25,1,17.75h-.05l-.22,5.3-.24.14a40.71,40.71,0,0,0-18.33,22.45l-.11.42-12.79-1.45.15-.56c6.77-24.92,27-27.1,30.54-27.28l-.91-15.84-13.15-1.15-59.5,41.67Zm336-441.1,10.79,1.22a42,42,0,0,1,18.44-22.51l.2-4.7a31.12,31.12,0,0,0-11.82,3.23C348.57,282.26,340.74,288.6,336.92,302Z"/><polygon class="cls-1" points="840.98 329.06 817.3 325.7 803.03 410.83 808.41 436.83 830.61 437.78 817.62 398.4 817.52 380.86 821.06 359.98 840.98 329.06"/><path class="cls-1" d="M843.36,330.16c-9.74,5.09-14.82,16.83-18.52,27.94a1.94,1.94,0,0,0-.88.51,7.28,7.28,0,0,0-2.22,5.31h0c-.06.13-.19.19-.22.34-2.86,11.42-5,23.12-3.92,34.94C818.8,412,824.39,424.07,828.8,436c.63,1.71,3.51,2.28,4,.07,2.1-9.85,2.27-20.25,2.69-30.55a2.05,2.05,0,0,0,1-1.56c.71-6.64,1.28-13.29,1.86-19.95.85-6.31,2-12.58,3.36-18.81.77-3.44,2-7,2.26-10.51a25.34,25.34,0,0,0-.37-5.75,44,44,0,0,0,1.65-14.4A2,2,0,0,0,845,334c.12-.07.23-.15.35-.22C847.74,332.54,845.72,328.93,843.36,330.16Z"/><path d="M830.15,440.1c-20.31-35-15.55-63.91-8-82A90.8,90.8,0,0,1,843.69,327l.65.76a89.76,89.76,0,0,0-21.27,30.76c-7.47,17.84-12.15,46.37,7.94,81Z"/><path d="M724.91,295.13l-360.79-36,104.83-52c.86-.66,3.38-2.85,3.68-4.47.39-2.73.75-173.26.75-175,0-.32-.3-8.5,4.31-13.27a11,11,0,0,1,8.41-3.27c1.31,0,4,0,8,0,111.83-1,218.72,3.57,317.71,13.66.14,0,13.69,1.65,15,21,1.26,19,5.67,180.49,5.71,182.12a10.93,10.93,0,0,1-4.49,8.55c-4.5,3.54-99,56.34-103,58.58ZM367.68,258.43l357,35.67c4.2-2.35,98.39-55,102.75-58.42a10.06,10.06,0,0,0,4.1-7.73c0-1.64-4.44-163.13-5.71-182.09-1.23-18.52-13.57-20.06-14.09-20.12-98.95-10.08-205.8-14.68-317.6-13.65-4.06,0-6.73.06-8.06,0a10,10,0,0,0-7.68,3c-4.31,4.45-4,12.47-4,12.55,0,7.08-.36,173-.77,175.18s-4,5-4.14,5.14Z"/><polygon points="726.46 318.05 725.88 317.99 368.87 283.4 366.14 281.31 365.4 258.77 366.4 258.74 367.13 280.8 369.25 282.43 725.4 316.94 724.3 294.64 725.3 294.59 726.46 318.05"/><path d="M727.72,347.45l-.58-.07L368.52,306.63l0-23.71h1l0,22.82,357.15,40.59-1.26-29.21.39-.1L853,284.59,841.78,42.77c0-.18-1.4-19.28-14.47-22.63-13.38-3.43-239.87-8.35-242.16-8.4l0-1c9.34.2,228.9,5,242.39,8.43,13.78,3.53,15.21,23.35,15.22,23.55L854,285.36,726.45,317.88Z"/><path d="M523.91,195.15h-.54c-1.74-.07-7-2.31-11.9-7.37a30.34,30.34,0,0,1-8.56-22.91c.59-14,5.35-23.07,14.17-26.88h0a16.42,16.42,0,0,1,11.95-.33c7.1,2.47,18.9,9.51,18.1,28.85C546,193.67,527.85,195.15,523.91,195.15Zm-.51-57.46a14.9,14.9,0,0,0-5.92,1.21h0c-8.44,3.65-13,12.39-13.57,26a29.36,29.36,0,0,0,8.28,22.17c4.73,4.9,9.87,7,11.22,7.07,2.2.09,21.55.1,22.71-27.68.78-18.69-10.58-25.48-17.43-27.86A16.12,16.12,0,0,0,523.41,137.69Z"/><path d="M731.24,212.95a17.29,17.29,0,0,1-11.32-4.38c-18.32-16-10.35-33.06-4-41.78l.4.29-.4-.29A16.24,16.24,0,0,1,734.59,161c7.18,2.67,15.65,9.39,15.18,26.24-.43,15.61-6.85,21.84-12.16,24.31A15,15,0,0,1,731.24,212.95ZM729.15,161a15.43,15.43,0,0,0-12.4,6.35c-6.18,8.45-13.89,24.93,3.83,40.44,4.79,4.19,11.31,5.31,16.61,2.83,7.24-3.38,11.25-11.49,11.58-23.44.45-16.26-7.65-22.72-14.53-25.27A14.59,14.59,0,0,0,729.15,161Z"/><path d="M730.38,213.34l-.15-1,27.87-4.19c1-1.25,7.9-11,6.06-30.44-.82-8.65-4.69-14.75-11.49-18.13a24.69,24.69,0,0,0-10-2.5l-18.79,5-.25-1,19-5c.23,0,20.47,0,22.51,21.53,2,21.28-6.06,30.92-6.41,31.32l-.12.14Z"/><path d="M816,137.88l-.54,0-79.73-5.42-.6-99.66,79.1,5.35Zm-79.28-6.4,78.26,5.32L813.19,39l-77.1-5.21Z"/><path d="M618.51,200.8a15.23,15.23,0,0,1-1.77-.1c-11.14-1.31-67-11.68-71.7-87.93-1.28-20.69,1.47-49.4,21.84-68.73,12.21-11.57,25.16-14.3,25.29-14.32h.06c19-1.6,37.7,5.15,52.71,19,16.68,15.4,27.35,38.24,30.86,66,3.29,26.07-4.31,49.92-21.41,67.18C641.93,194.53,627.17,200.8,618.51,200.8ZM592.35,30.72c-.66.14-13.08,3-24.81,14.1-20.06,19.06-22.76,47.44-21.49,67.9C548,143.54,558.35,167,577,182.44a78.56,78.56,0,0,0,39.9,17.28c8,.94,23.69-5.21,36.82-18.46,11.94-12,25.3-33.34,21.13-66.35-3.48-27.56-14-50.19-30.55-65.43C629.47,35.81,611,29.15,592.35,30.72Z"/><path d="M616.84,200.71l-.08-1,48.43-3.8a68.57,68.57,0,0,0,24.57-13.65c11.42-9.71,25.41-27.9,27.15-59.44,1.86-33.65-10-57.9-20.33-72.32-12.08-16.91-26.93-27-35.36-28.13-16.1-2.25-44.39,1.18-68.81,8.34l-.28-1c24.53-7.2,53-10.64,69.23-8.37,11.41,1.6,26.77,15.57,36,28.54,10.4,14.55,22.4,39,20.52,73-1.77,31.92-16,50.34-27.54,60.18-12.56,10.66-24.9,13.81-25,13.84Z"/><path d="M656.4,148.62a23.9,23.9,0,0,1-5.61-.67c-17.22-4.16-24-25.32-26.55-37.57C621.06,95,622.88,82.78,629.66,74c9.5-12.24,25.64-13.15,25.8-13.16l0,1c-.16,0-15.85.9-25.07,12.78-6.58,8.49-8.34,20.44-5.23,35.51C629.49,130.93,638.65,144,651,147a24.08,24.08,0,0,0,23.72-7.86l.78.63A25.29,25.29,0,0,1,656.4,148.62Z"/><path d="M558.55,301.78l-36.34-3.52.94-22.45.25-.13,105.22-55.84c.09,0,3.89-1.91,2.63-19l0-.6.6.06c.13,0,12.6,1.27,33.29-4.41l.61-.17.8,22,0,.07c0,.18-1.12,4.36-6.78,7.94-5.42,3.43-94.36,49.74-101,53.22Zm-35.3-4.42,34.3,3.32.12-22.35.27-.14c1-.5,95.76-49.86,101.23-53.32,4.94-3.12,6.17-6.76,6.33-7.27l-.75-20.55c-18,4.87-29.76,4.5-32.46,4.32,1.19,17.28-2.8,19.2-3.27,19.37l-104.9,55.68Z"/><path d="M545.89,117.95c-.41,0-41.49-1.42-49.19-2.06-2.73-.22-4.72-1.13-5.91-2.71a6.39,6.39,0,0,1-1.13-4.66c0-1.69-.71-27.58-.24-31.56.53-4.42,6.64-4.64,6.9-4.65l52.79,2.21,0,1-52.76-2.2s-5.48.21-5.9,3.77c-.47,4,.24,31.19.25,31.46v.11a5.47,5.47,0,0,0,.94,3.93c1,1.33,2.76,2.1,5.19,2.3,7.68.63,48.73,2,49.14,2.05Z"/><path d="M872.37,383.7l-.31-1c6.51-2.09,159.57-51.27,170.37-52.52,10.33-1.2,11-13.59,11-13.72,0-.34.63-35.33.39-49.19-.24-13.6-4.85-18.26-4.9-18.3-.3-.31-28.84-30.28-56.26-61C936.92,125.73,940,121.3,941,119.85c6.28-9,45.75-9.06,47.39-9.07.41,0,36.73,3.18,56.48,2.36,15.49-.64,21.46-7,22.46-10.34,7.63-39.77,6.71-62.21,4.6-74-2.29-12.79-6.42-16.21-6.46-16.24C1054.72,4.8,1035.91.91,1009.47,1a317.66,317.66,0,0,0-43.14,3.29c-8.06,1.26-15.07,11.52-15.14,11.62l-.14.21-123.61,4,0-1,123.1-4c1.09-1.55,7.74-10.6,15.67-11.84,3-.46,72.68-11.13,99.9,8.41.72.56,17,14.28,2.23,91.31-.13.46-3.25,10.27-23.39,11.1-19.82.82-56.2-2.33-56.56-2.36s-40.55.06-46.53,8.65c-4.38,6.28,62.06,79.93,107.78,127.89.19.18,4.94,4.92,5.19,19,.24,13.88-.39,48.88-.39,49.24,0,.15-.69,13.38-11.86,14.68C1031.85,332.46,874,383.19,872.37,383.7Z"/><path d="M988.57,111.75l-.32-.95c.22-.07,22-7.44,30.39-10.38,7.27-2.56,9.51-5,9.91-5.52.17-2.92,2.77-47.18,2.42-57.87-.33-10-6.48-14.74-7.33-15.34l-72.88-5.54.08-1L1024,20.71l.11.07c.31.2,7.52,4.93,7.89,16.22.36,11.05-2.4,57.64-2.43,58.11v.13l-.07.11c-.08.12-2,3-10.49,6C1010.62,104.31,988.79,111.68,988.57,111.75Z"/></g></g></svg>