<svg xmlns="http://www.w3.org/2000/svg" viewBox="0 0 495.24 542.21"><defs><style>.cls-1{fill:none;}.cls-2{fill:#fff;}</style></defs><title>holderino logo</title><g id="Livello_2" data-name="Livello 2"><g id="Livello_2-2" data-name="Livello 2"><rect class="cls-1" x="7.55" y="7.55" width="10.52" height="64.7"/><polygon class="cls-1" points="263.56 283.78 271.87 283.78 271.87 317.02 277.41 317.02 277.41 283.78 285.72 283.78 285.72 278.24 263.56 278.24 263.56 283.78"/><path class="cls-1" d="M241.67,254.17h2.77l8.31,16.62h5.54L250,254.17h2.77a5.54,5.54,0,0,0,5.54-5.54V237.55a5.62,5.62,0,0,0-5.54-5.54H236.13V270.8h5.54Zm0-16.62h11.08v11.08H241.67Z"/><polygon class="cls-1" points="225.33 300.4 219.79 311.48 214.25 300.4 214.25 278.24 208.71 278.24 208.71 300.4 217.02 317.02 222.56 317.02 230.87 300.4 230.87 278.24 225.33 278.24 225.33 300.4"/><path class="cls-1" d="M254.14,278.24H243.06a5.54,5.54,0,0,0-5.54,5.54V317h5.54V300.4h11.08V317h5.54V283.78a5.62,5.62,0,0,0-5.54-5.54Zm0,16.62H243.06V283.78h11.08Z"/><polygon class="cls-1" points="213.97 254.17 216.74 254.17 225.05 270.8 230.59 270.8 220.9 251.4 230.59 232.01 225.05 232.01 216.74 248.63 213.97 248.63 213.97 232.01 208.43 232.01 208.43 270.8 213.97 270.8 213.97 254.17"/><path class="cls-1" d="M280.46,232H269.38a5.54,5.54,0,0,0-5.54,5.54V270.8h5.54V254.17h11.08V270.8H286V237.55a5.62,5.62,0,0,0-5.54-5.54Zm0,16.62H269.38V237.55h11.08Z"/><rect class="cls-1" x="477.18" y="7.55" width="10.51" height="64.7"/><path class="cls-1" d="M7.55,534.66H487.7V79.8H7.55Zm188-317.17H299.69V332.84H195.56Zm-17.46-10.6h4.43v134l65.09,50.6,65.09-50.6v-134h4.43V343.43l-.24.19-69.28,54.25-.39-.31L178.1,343.43Z"/><polygon class="cls-2" points="247.62 397.86 316.91 343.62 317.15 343.43 317.15 206.88 312.72 206.88 312.72 340.85 247.62 391.45 182.53 340.85 182.53 206.88 178.1 206.88 178.1 343.43 247.23 397.55 247.62 397.86"/><rect class="cls-2" x="269.38" y="237.55" width="11.08" height="11.08"/><rect class="cls-2" x="241.67" y="237.55" width="11.08" height="11.08"/><rect class="cls-2" x="243.06" y="283.78" width="11.08" height="11.08"/><path class="cls-2" d="M299.69,217.49H195.56V332.84H299.69ZM208.43,232H214v16.62h2.77L225.05,232h5.54l-9.7,19.39,9.7,19.39h-5.54l-8.31-16.62H214V270.8h-5.54Zm22.44,68.39L222.56,317H217l-8.31-16.62V278.24h5.54V300.4l5.54,11.08,5.54-11.08V278.24h5.54ZM236.13,232h16.62a5.62,5.62,0,0,1,5.54,5.54v11.08a5.54,5.54,0,0,1-5.54,5.54H250l8.31,16.62h-5.54l-8.31-16.62h-2.77V270.8h-5.54Zm23.55,85h-5.54V300.4H243.06V317h-5.54V283.78a5.54,5.54,0,0,1,5.54-5.54h11.08a5.62,5.62,0,0,1,5.54,5.54Zm26-33.24h-8.31V317h-5.54V283.78h-8.31v-5.54h22.16Zm.28-13h-5.54V254.17H269.38V270.8h-5.54V237.55a5.54,5.54,0,0,1,5.54-5.54h11.08a5.62,5.62,0,0,1,5.54,5.54Z"/><path class="cls-2" d="M469.63,0V72.25h-444V0H0V542.21H495.24V0ZM7.55,7.55H18.06v64.7H7.55ZM487.7,534.66H7.55V79.8H487.7Zm0-462.41H477.18V7.55H487.7Z"/></g></g></svg>
