<svg xmlns="http://www.w3.org/2000/svg" viewBox="0 0 495.24 542.21"><defs><style>.cls-1{fill:none;}.cls-2{fill:#fff;}</style></defs><title>holderino domanda</title><g id="Livello_2" data-name="Livello 2"><g id="Livello_2-2" data-name="Livello 2"><rect class="cls-1" x="7.55" y="7.55" width="10.52" height="64.7"/><path class="cls-1" d="M7.55,534.66H487.7V79.8H7.55Z"/><rect class="cls-1" x="477.18" y="7.55" width="10.51" height="64.7"/><path class="cls-2" d="M469.63,0V72.25h-444V0H0V542.21H495.24V0ZM7.55,7.55H18.06v64.7H7.55ZM487.7,534.66H7.55V79.8H487.7Zm0-462.41H477.18V7.55H487.7Z"/><path class="cls-2" d="M247.53,260.87a13.84,13.84,0,0,0-10,4,12.85,12.85,0,0,0-4,9.58,13.72,13.72,0,0,0,1.06,5.4,13,13,0,0,0,3,4.35,14.14,14.14,0,0,0,4.4,2.9,13.76,13.76,0,0,0,5.4,1.06,13.91,13.91,0,0,0,9.7-3.9,13.72,13.72,0,0,0,0-19.39A13,13,0,0,0,247.53,260.87Z"/><path class="cls-2" d="M237.61,150.66q0-18.94,9.81-18.94,6.91,0,9.58,7.58,2.78,6.91,2.79,26.75,0,17.05-3.57,23T242.4,194.9l-5.13-.11v51.71h20.17V210.05q13.59-.89,18.61-10.7t5.13-35.55q0-28.42-7.47-39.56-7.35-11.48-25.74-11.48a40.11,40.11,0,0,0-14,2.17,22,22,0,0,0-9.58,6.85,29.56,29.56,0,0,0-5.52,11.92A75.27,75.27,0,0,0,217.11,151l-.11,6.58h20.62Z"/><path class="cls-2" d="M393.53,259.87a13.84,13.84,0,0,0-10,4,12.85,12.85,0,0,0-4,9.58,13.72,13.72,0,0,0,1.06,5.4,13,13,0,0,0,3,4.35,14.14,14.14,0,0,0,4.4,2.9,13.76,13.76,0,0,0,5.4,1.06,13.91,13.91,0,0,0,9.7-3.9,13.72,13.72,0,0,0,0-19.39A13,13,0,0,0,393.53,259.87Z"/><path class="cls-2" d="M383.61,149.66q0-18.94,9.81-18.94,6.91,0,9.58,7.58,2.78,6.91,2.79,26.75,0,17.05-3.57,23T388.4,193.9l-5.13-.11v51.71h20.17V209.05q13.59-.89,18.61-10.7t5.13-35.55q0-28.42-7.47-39.56-7.35-11.48-25.74-11.48a40.11,40.11,0,0,0-14,2.17,22,22,0,0,0-9.58,6.85,29.56,29.56,0,0,0-5.52,11.92A75.27,75.27,0,0,0,363.11,150l-.11,6.58h20.62Z"/><path class="cls-2" d="M395.53,473.87a13.84,13.84,0,0,0-10,4,12.85,12.85,0,0,0-4,9.58,13.72,13.72,0,0,0,1.06,5.4,13,13,0,0,0,3,4.35,14.14,14.14,0,0,0,4.4,2.9,13.76,13.76,0,0,0,5.4,1.06,13.91,13.91,0,0,0,9.7-3.9,13.72,13.72,0,0,0,0-19.39A13,13,0,0,0,395.53,473.87Z"/><path class="cls-2" d="M385.61,363.66q0-18.94,9.81-18.94,6.91,0,9.58,7.58,2.78,6.91,2.79,26.75,0,17.05-3.57,23T390.4,407.9l-5.13-.11v51.71h20.17V423.05q13.59-.89,18.61-10.7t5.13-35.55q0-28.42-7.47-39.56-7.35-11.48-25.74-11.48a40.11,40.11,0,0,0-14,2.17,22,22,0,0,0-9.58,6.85,29.56,29.56,0,0,0-5.52,11.92A75.27,75.27,0,0,0,365.11,364l-.11,6.58h20.62Z"/><path class="cls-2" d="M245.53,474.87a13.84,13.84,0,0,0-10,4,12.85,12.85,0,0,0-4,9.58,13.72,13.72,0,0,0,1.06,5.4,13,13,0,0,0,3,4.35,14.14,14.14,0,0,0,4.4,2.9,13.76,13.76,0,0,0,5.4,1.06,13.91,13.91,0,0,0,9.7-3.9,13.72,13.72,0,0,0,0-19.39A13,13,0,0,0,245.53,474.87Z"/><path class="cls-2" d="M235.61,364.66q0-18.94,9.81-18.94,6.91,0,9.58,7.58,2.78,6.91,2.79,26.75,0,17.05-3.57,23T240.4,408.9l-5.13-.11v51.71h20.17V424.05q13.59-.89,18.61-10.7t5.13-35.55q0-28.42-7.47-39.56-7.35-11.48-25.74-11.48a40.11,40.11,0,0,0-14,2.17,22,22,0,0,0-9.58,6.85,29.56,29.56,0,0,0-5.52,11.92A75.27,75.27,0,0,0,215.11,365l-.11,6.58h20.62Z"/><path class="cls-2" d="M100.53,259.87a13.84,13.84,0,0,0-10,4,12.85,12.85,0,0,0-4,9.58,13.72,13.72,0,0,0,1.06,5.4,13,13,0,0,0,3,4.35,14.14,14.14,0,0,0,4.4,2.9,13.76,13.76,0,0,0,5.4,1.06,13.91,13.91,0,0,0,9.7-3.9,13.72,13.72,0,0,0,0-19.39A13,13,0,0,0,100.53,259.87Z"/><path class="cls-2" d="M90.61,149.66q0-18.94,9.81-18.94,6.91,0,9.58,7.58,2.78,6.91,2.79,26.75,0,17.05-3.57,23T95.4,193.9l-5.13-.11v51.71h20.17V209.05q13.59-.89,18.61-10.7t5.13-35.55q0-28.42-7.47-39.56-7.35-11.48-25.74-11.48a40.11,40.11,0,0,0-14,2.17,22,22,0,0,0-9.58,6.85,29.56,29.56,0,0,0-5.52,11.92A75.27,75.27,0,0,0,70.11,150L70,156.57H90.61Z"/><path class="cls-2" d="M100.53,473.87a13.84,13.84,0,0,0-10,4,12.85,12.85,0,0,0-4,9.58,13.72,13.72,0,0,0,1.06,5.4,13,13,0,0,0,3,4.35,14.14,14.14,0,0,0,4.4,2.9,13.76,13.76,0,0,0,5.4,1.06,13.91,13.91,0,0,0,9.7-3.9,13.72,13.72,0,0,0,0-19.39A13,13,0,0,0,100.53,473.87Z"/><path class="cls-2" d="M90.61,363.66q0-18.94,9.81-18.94,6.91,0,9.58,7.58,2.78,6.91,2.79,26.75,0,17.05-3.57,23T95.4,407.9l-5.13-.11v51.71h20.17V423.05q13.59-.89,18.61-10.7t5.13-35.55q0-28.42-7.47-39.56-7.35-11.48-25.74-11.48a40.11,40.11,0,0,0-14,2.17,22,22,0,0,0-9.58,6.85,29.56,29.56,0,0,0-5.52,11.92A75.27,75.27,0,0,0,70.11,364L70,370.57H90.61Z"/></g></g></svg>
