<svg xmlns="http://www.w3.org/2000/svg" viewBox="0 0 842.34 662.05"><defs><style>.cls-1{fill:#dd1908;}.cls-2{fill:#f2f2f2;}</style></defs><title>Risorsa 18</title><g id="Livello_2" data-name="Livello 2"><g id="Livello_2-2" data-name="Livello 2"><path class="cls-1" d="M822.54,73.78C815.46,66.87,801,68.17,801,68.17L774.24,45.29,758.5,42.93,701.72,87.17,356.62,47.95l-3-45.69L340.35,1.1,318.83,16.57c-10.83-6.18-17.55,1.77-17.55,1.77C281.53,31,282.81,41.4,282.81,41.4L1.67,468.82l77.49,84.93L519.76,661l262.6-469.06,2.94-15,16-.14c16.61-6.91,36.48-18.06,39.73-51.27S829.62,80.7,822.54,73.78Z"/><path class="cls-2" d="M519.83,662.05,78.2,554.58,0,468.88l.36-.7a1,1,0,0,1,1.15-.5h0L436.26,568.1,718.15,91.19l.13-.11,55.54-47.19,21.9,19.42L784.84,188.69l-.11.19ZM79.26,552.78l439.56,107L782.88,188.08,793.64,64.15,773.79,46.54l-54.09,46L437.23,570.38l-.71-.17L4,470.31Z"/><polygon class="cls-2" points="704.19 88.25 703.77 88.2 296.54 42.13 352.59 1.38 353.77 2.99 301.88 40.72 703.58 86.17 757.77 41.8 773.95 44.23 773.65 46.21 758.35 43.91 704.19 88.25"/><path class="cls-2" d="M281.38,41.4a18.46,18.46,0,0,1,1.16-7.31l.09-.18c8.19-12.48,24.23-20.35,24.91-20.68l.28-.13,11.3,1.62-.28,2-10.69-1.53c-2.14,1.09-16.44,8.65-23.78,19.75a16.62,16.62,0,0,0-1,6.34Z"/><path class="cls-2" d="M801,177.67l-35-1.46-.26-.2c-.28-.22-27.74-22.65-23.24-58.1,2.05-16.16,6.95-30,14.16-40.09,6.1-8.51,13.59-14,21.1-15.56l.17,0,.17,0,36,5.13.13.06c.33.15,33.39,15.4,27.37,58.11-3.14,22.25-13.95,35.22-22.47,42.19-9.25,7.56-17.65,9.82-18,9.91Zm-34.25-3.43,34,1.42c2.32-.68,33.24-10.49,38.86-50.4,3-21.52-4.24-35.59-10.87-43.6a48.5,48.5,0,0,0-15.22-12.35L778,64.25c-13.67,2.88-29.28,20.63-33.51,53.91C740.35,150.7,764.06,171.95,766.75,174.24Z"/><rect class="cls-2" x="477.04" y="553.38" width="2" height="123.38" transform="translate(-288.81 478.06) rotate(-42.02)"/><polygon class="cls-2" points="293.01 364.9 266.38 296.51 349.59 168.13 351.27 169.22 268.62 296.74 294.13 362.25 392.29 320.62 475.69 187.24 477.39 188.3 393.65 322.21 293.01 364.9"/><path class="cls-2" d="M384.84,308l-95.47-18.75,69.41-110.2,96.28,14.48Zm-92.23-20.15,91.25,17.92,67.91-110.71-92-13.84Z"/><path class="cls-2" d="M1.95,469.17l-1.67-1.1L281.65,40.62,339.64,0l14.48,1.26,1,18.1h-.1l-.2,4.9-.48.27A38.76,38.76,0,0,0,337,45.85l-.22.83-13.37-1.51.31-1.12c6.33-23.3,24.74-26.26,29.38-26.63L352.23,3.1l-12-1L283.11,42Zm324-425.72,9.36,1.06a40.42,40.42,0,0,1,17.63-21.43l.15-3.67C348.71,19.7,332.22,22.27,325.93,43.44Z"/><polygon class="cls-1" points="810.91 69.92 788.1 66.68 774.34 148.71 779.52 173.76 800.92 174.67 788.4 136.73 788.31 119.83 791.72 99.71 810.91 69.92"/><path class="cls-1" d="M813.21,71c-9.39,4.9-14.28,16.21-17.84,26.92a1.87,1.87,0,0,0-.85.49,7,7,0,0,0-2.14,5.12h0c-.06.12-.18.18-.22.32-2.76,11-4.84,22.27-3.77,33.66,1.15,12.33,6.54,24,10.79,35.46.61,1.65,3.38,2.19,3.84.07,2-9.49,2.19-19.51,2.59-29.43a2,2,0,0,0,.92-1.5c.68-6.4,1.23-12.81,1.8-19.22.82-6.08,1.88-12.12,3.23-18.12.75-3.32,1.92-6.72,2.17-10.12a24.42,24.42,0,0,0-.36-5.54A42.36,42.36,0,0,0,815,75.22a1.91,1.91,0,0,0-.15-.56c.12-.06.22-.15.34-.21C817.42,73.27,815.48,69.79,813.21,71Z"/><path d="M800.46,176.92c-19.57-33.77-15-61.59-7.69-79a87.5,87.5,0,0,1,20.74-30l.65.76a86.47,86.47,0,0,0-20.48,29.63c-7.19,17.18-11.71,44.67,7.65,78.06Z"/></g></g></svg>