<svg xmlns="http://www.w3.org/2000/svg" viewBox="0 0 228.78 69.81"><defs><style>.cls-1{fill:#fff;}.cls-2{fill:#dd1908;}</style></defs><title>Risorsa 7</title><g id="Livello_2" data-name="Livello 2"><g id="Livello_2-2" data-name="Livello 2"><path class="cls-1" d="M60.87,68.75V54.36a2.4,2.4,0,0,1,2.4-2.4h4.8a2.43,2.43,0,0,1,2.4,2.4V68.75h-2.4V61.56h-4.8v7.19Zm7.19-9.59v-4.8h-4.8v4.8Z"/><path class="cls-1" d="M74.68,68.75V52h2.4l6,12V52h2.4V68.75h-2.4l-6-12v12Z"/><path class="cls-1" d="M89.69,68.75V54.36a2.4,2.4,0,0,1,2.4-2.4h4.8a2.43,2.43,0,0,1,2.4,2.4V68.75h-2.4V61.56h-4.8v7.19Zm7.19-9.59v-4.8h-4.8v4.8Z"/><path class="cls-1" d="M103.5,68.75V52h2.4V66.35h7.19v2.4Z"/><path class="cls-1" d="M119.71,68.75a2.37,2.37,0,0,1-2.4-2.4v-12a2.4,2.4,0,0,1,2.4-2.4h4.8a2.43,2.43,0,0,1,2.4,2.4v12a2.4,2.4,0,0,1-2.4,2.4Zm4.8-2.4v-12h-4.8v12Z"/><path class="cls-1" d="M133.52,68.75a2.37,2.37,0,0,1-2.4-2.4v-12a2.4,2.4,0,0,1,2.4-2.4h4.8a2.43,2.43,0,0,1,2.4,2.4v2.4h-2.4v-2.4h-4.8v12h4.8v-4.8h-2.4v-2.4h3.6a1.22,1.22,0,0,1,1.2,1.2v6a2.4,2.4,0,0,1-2.4,2.4Z"/><path class="cls-1" d="M153.79,68.75l-3.6-7.19V52h2.4v9.59l2.4,4.8,2.4-4.8V52h2.4v9.59l-3.6,7.19Z"/><path class="cls-1" d="M164,68.75v-2.4h2.4v-12H164V52h7.19v2.4h-2.4v12h2.4v2.4Z"/><path class="cls-1" d="M177.81,68.75a2.37,2.37,0,0,1-2.4-2.4V64h2.4v2.4h4.8v-4.8h-4.8a2.37,2.37,0,0,1-2.4-2.4v-4.8a2.4,2.4,0,0,1,2.4-2.4h4.8a2.43,2.43,0,0,1,2.4,2.4v2.4h-2.4v-2.4h-4.8v4.8h4.8a2.43,2.43,0,0,1,2.4,2.4v4.8a2.4,2.4,0,0,1-2.4,2.4Z"/><path class="cls-1" d="M189.22,68.75v-2.4h2.4v-12h-2.4V52h7.19v2.4H194v12h2.4v2.4Z"/><path class="cls-1" d="M203,68.75a2.37,2.37,0,0,1-2.4-2.4v-12A2.4,2.4,0,0,1,203,52h4.8a2.43,2.43,0,0,1,2.4,2.4v12a2.4,2.4,0,0,1-2.4,2.4Zm4.8-2.4v-12H203v12Z"/><path class="cls-1" d="M214.45,68.75V52h2.4l6,12V52h2.4V68.75h-2.4l-6-12v12Z"/><polygon class="cls-1" points="49.21 0 49.21 48.97 25.41 67.46 1.62 48.97 1.62 0 0 0 0 49.91 25.27 69.69 25.41 69.81 50.74 49.98 50.83 49.91 50.83 0 49.21 0"/><rect class="cls-2" x="6.38" y="3.88" width="38.06" height="42.16"/><path class="cls-1" d="M60.87,43.19V2.66h5.79V20h2.9L78.24,2.66H84L73.89,22.92,84,43.19H78.24L69.55,25.82h-2.9V43.19Z"/><path class="cls-1" d="M89.82,43.19V2.66h17.37a5.47,5.47,0,0,1,4.07,1.72A5.47,5.47,0,0,1,113,8.45V20a5.79,5.79,0,0,1-5.79,5.79h-2.9L113,43.19h-5.79L98.5,25.82h-2.9V43.19ZM107.19,20V8.45H95.61V20Z"/><path class="cls-1" d="M118.77,43.19V8.45a5.54,5.54,0,0,1,1.67-4.07,5.52,5.52,0,0,1,4.12-1.72h11.58a5.47,5.47,0,0,1,4.07,1.72,5.47,5.47,0,0,1,1.72,4.07V43.19h-5.79V25.82H124.56V43.19ZM136.14,20V8.45H124.56V20Z"/><path class="cls-1" d="M156.41,43.19l-8.69-17.37V2.66h5.79V25.82L159.3,37.4l5.79-11.58V2.66h5.79V25.82L162.2,43.19Z"/><path class="cls-1" d="M176.67,43.19V8.45a5.54,5.54,0,0,1,1.67-4.07,5.52,5.52,0,0,1,4.12-1.72H194a5.47,5.47,0,0,1,4.07,1.72,5.47,5.47,0,0,1,1.72,4.07V43.19H194V25.82H182.46V43.19ZM194,20V8.45H182.46V20Z"/><path class="cls-1" d="M214.31,43.19V8.45h-8.69V2.66h23.16V8.45H220.1V43.19Z"/></g></g></svg>