<svg xmlns="http://www.w3.org/2000/svg" viewBox="0 0 69.96 56.85"><defs><style>.cls-1{fill:#fff;}</style></defs><title>Risorsa 14</title><g id="Livello_2" data-name="Livello 2"><g id="Livello_2-2" data-name="Livello 2"><path class="cls-1" d="M0,50.4a40.6,40.6,0,0,0,22,6.45c26.65,0,41.7-22.51,40.79-42.7A29.06,29.06,0,0,0,70,6.73,28.53,28.53,0,0,1,61.72,9,14.37,14.37,0,0,0,68,1a28.81,28.81,0,0,1-9.11,3.49A14.36,14.36,0,0,0,34.45,17.62a40.73,40.73,0,0,1-29.58-15A14.37,14.37,0,0,0,9.31,21.79,14.31,14.31,0,0,1,2.81,20,14.37,14.37,0,0,0,14.32,34.25a14.32,14.32,0,0,1-6.48.24,14.36,14.36,0,0,0,13.41,10A28.83,28.83,0,0,1,0,50.4Z"/></g></g></svg>