<svg xmlns="http://www.w3.org/2000/svg" viewBox="0 0 61.24 61.24"><defs><style>.cls-1{fill:#fff;}</style></defs><title>Risorsa 12</title><g id="Livello_2" data-name="Livello 2"><g id="Livello_2-2" data-name="Livello 2"><path class="cls-1" d="M30.62,0C22.31,0,21.26,0,18,.18a22.42,22.42,0,0,0-7.43,1.42A15,15,0,0,0,5.14,5.14a15,15,0,0,0-3.53,5.42A22.48,22.48,0,0,0,.18,18C0,21.26,0,22.31,0,30.62S0,40,.18,43.25a22.45,22.45,0,0,0,1.42,7.43A15,15,0,0,0,5.14,56.1a15,15,0,0,0,5.42,3.53A22.49,22.49,0,0,0,18,61.06c3.27.15,4.31.18,12.63.18s9.36,0,12.63-.18a22.49,22.49,0,0,0,7.43-1.42,15.67,15.67,0,0,0,9-9,22.49,22.49,0,0,0,1.42-7.43c.15-3.27.18-4.31.18-12.63s0-9.36-.18-12.63a22.52,22.52,0,0,0-1.42-7.43A15.05,15.05,0,0,0,56.1,5.14a15,15,0,0,0-5.42-3.53A22.42,22.42,0,0,0,43.25.18C40,0,38.94,0,30.62,0m0,5.52c8.18,0,9.15,0,12.37.18a17,17,0,0,1,5.69,1.06A9.49,9.49,0,0,1,52.2,9a9.49,9.49,0,0,1,2.29,3.52,17,17,0,0,1,1.06,5.69c.15,3.23.18,4.2.18,12.37s0,9.14-.18,12.37a16.94,16.94,0,0,1-1.06,5.69,10.13,10.13,0,0,1-5.81,5.81A17,17,0,0,1,43,55.55c-3.23.15-4.2.18-12.37.18s-9.15,0-12.37-.18a17,17,0,0,1-5.69-1.06A9.52,9.52,0,0,1,9,52.2a9.5,9.5,0,0,1-2.29-3.52A17,17,0,0,1,5.7,43c-.15-3.23-.18-4.2-.18-12.37s0-9.15.18-12.37a17,17,0,0,1,1.05-5.69A9.49,9.49,0,0,1,9,9a9.49,9.49,0,0,1,3.52-2.29,16.94,16.94,0,0,1,5.69-1.06c3.23-.15,4.2-.18,12.37-.18"/><path class="cls-1" d="M30.62,40.83A10.21,10.21,0,1,1,40.83,30.62,10.21,10.21,0,0,1,30.62,40.83m0-25.93A15.72,15.72,0,1,0,46.35,30.62,15.73,15.73,0,0,0,30.62,14.9"/><path class="cls-1" d="M50.64,14.28A3.68,3.68,0,1,1,47,10.6a3.68,3.68,0,0,1,3.67,3.68"/></g></g></svg>