<svg xmlns="http://www.w3.org/2000/svg" viewBox="0 0 71.88 55.39"><defs><style>.cls-1{fill:#fff;}</style></defs><title>Risorsa 16</title><g id="Livello_2" data-name="Livello 2"><g id="Livello_2-2" data-name="Livello 2"><path class="cls-1" d="M70.38,8.65a9.5,9.5,0,0,0-6.36-7C58.42,0,35.94,0,35.94,0S13.46,0,7.86,1.65a9.5,9.5,0,0,0-6.36,7C0,14.82,0,27.7,0,27.7s0,12.88,1.5,19a9.5,9.5,0,0,0,6.36,7c5.61,1.65,28.08,1.65,28.08,1.65s22.48,0,28.09-1.65a9.5,9.5,0,0,0,6.36-7c1.5-6.17,1.5-19,1.5-19S71.88,14.82,70.38,8.65ZM26.29,40.56V16.48l21.16,12Z"/></g></g></svg>